<svg id="logo_full_black" xmlns="http://www.w3.org/2000/svg" width="94.694" height="11.685" viewBox="0 0 94.694 11.685">
  <path id="Path_5938" data-name="Path 5938" d="M570.781,204.157l-1.516,1.565v2.836h-2.591V197.313h2.591v5.28l4.987-5.28h2.885l-4.694,5.036,4.987,6.209H574.4Z" transform="translate(-566.674 -197.068)" fill="#ffffff"/>
  <path id="Path_5939" data-name="Path 5939" d="M700.936,201.183c0-3.374,2.591-5.818,6.16-5.818a5.828,5.828,0,1,1,0,11.636C703.527,207,700.936,204.556,700.936,201.183Zm9.681,0a3.522,3.522,0,1,0-3.52,3.618A3.442,3.442,0,0,0,710.617,201.183Z" transform="translate(-687.46 -195.315)" fill="#ffffff"/>
  <path id="Path_5940" data-name="Path 5940" d="M858.675,205.724h-5.231l-.978,2.4h-2.689l5.036-11.294H857.4l4.987,11.294h-2.738Zm-.831-2-1.809-4.3-1.809,4.3Z" transform="translate(-821.358 -196.63)" fill="#ffffff"/>
  <path id="Path_5941" data-name="Path 5941" d="M1013.794,197.313h2.591v9.143h6.5v2.1h-9.088Z" transform="translate(-968.911 -197.068)" fill="#ffffff"/>
  <path id="Path_5942" data-name="Path 5942" d="M1144.794,206.162h-5.231l-.978,2.4H1135.9l5.036-11.245h2.591l5.036,11.294h-2.738Zm-.831-2-1.809-4.3-1.809,4.3Z" transform="translate(-1078.756 -197.068)" fill="#ffffff"/>
  <path id="Path_5943" data-name="Path 5943" d="M1302,208.558h-2.542v-2.347h-7.149v-1.76l5.329-7.138h2.738l-4.938,6.8h4.117v-2.151H1302Z" transform="translate(-1219.467 -197.068)" fill="#ffffff"/>
  <path id="Path_5944" data-name="Path 5944" d="M1428.94,204.265v2.1h-8.507v-1.711l4.351-4.107c.978-.929,1.173-1.516,1.173-2.053,0-.88-.635-1.418-1.809-1.418a2.809,2.809,0,0,0-2.347,1.125l-1.907-1.222a5.266,5.266,0,0,1,4.5-2.1c2.494,0,4.2,1.271,4.2,3.325,0,1.076-.293,2.1-1.907,3.569l-2.591,2.445h4.84Z" transform="translate(-1334.247 -194.877)" fill="#ffffff"/>
</svg>
